<?xml version="1.0" encoding="UTF-8" standalone="no"?>
<!-- Created with Inkscape (http://www.inkscape.org/) -->

<svg
   xmlns:dc="http://purl.org/dc/elements/1.1/"
   xmlns:cc="http://creativecommons.org/ns#"
   xmlns:rdf="http://www.w3.org/1999/02/22-rdf-syntax-ns#"
   xmlns:svg="http://www.w3.org/2000/svg"
   xmlns="http://www.w3.org/2000/svg"
   xmlns:sodipodi="http://sodipodi.sourceforge.net/DTD/sodipodi-0.dtd"
   xmlns:inkscape="http://www.inkscape.org/namespaces/inkscape"
   width="600"
   height="60"
   id="svg2"
   version="1.1"
   inkscape:version="0.47 r22583"
   sodipodi:docname="Nytt dokument 1">
  <defs
     id="defs4">
    <inkscape:perspective
       sodipodi:type="inkscape:persp3d"
       inkscape:vp_x="0 : 526.18 : 1"
       inkscape:vp_y="0 : 1000 : 0"
       inkscape:vp_z="744.09 : 526.18 : 1"
       inkscape:persp3d-origin="372.04 : 350.78 : 1"
       id="perspective10" />
  </defs>
  <sodipodi:namedview
     id="base"
     pagecolor="#ffffff"
     bordercolor="#666666"
     borderopacity="1.0"
     inkscape:pageopacity="0.0"
     inkscape:pageshadow="2"
     inkscape:zoom="0.98"
     inkscape:cx="257.60"
     inkscape:cy="1033.78"
     inkscape:document-units="px"
     inkscape:current-layer="layer1"
     showgrid="false"
     inkscape:window-width="940"
     inkscape:window-height="668"
     inkscape:window-x="0"
     inkscape:window-y="33"
     inkscape:window-maximized="0" />
  <metadata
     id="metadata7">
    <rdf:RDF>
      <cc:Work
         rdf:about="">
        <dc:format>image/svg+xml</dc:format>
        <dc:type
           rdf:resource="http://purl.org/dc/dcmitype/StillImage" />
        <dc:title></dc:title>
      </cc:Work>
    </rdf:RDF>
  </metadata>
  <g
     inkscape:label="Layer 1"
     inkscape:groupmode="layer"
     id="layer1">
    <rect x="0" y="0" width="600" height="60" style="fill:yellow"/>
    <path
       id="path2823"
       style="font-size:40px;font-style:normal;font-weight:normal;text-align:start;line-height:125%;writing-mode:lr-tb;text-anchor:start;fill:#000000;fill-opacity:1;stroke:none;font-family:Bitstream Vera Sans"
       d="m 24.58,15.61 0,6.21 7.40,0 0,2.79 -7.40,0 0,11.87 c -7e-6,1.78 0.24,2.92 0.72,3.43 0.49,0.50 1.49,0.76 2.98,0.76 l 3.69,0 0,3.00 -3.69,0 c -2.77,0 -4.68,-0.51 -5.74,-1.54 -1.05,-1.04 -1.58,-2.92 -1.58,-5.66 l 0,-11.87 -2.63,0 0,-2.79 2.63,0 0,-6.21 3.61,0" />
    <path
       style="font-size:40px;font-style:normal;font-weight:normal;text-align:start;line-height:125%;writing-mode:lr-tb;text-anchor:start;fill:#000000;fill-opacity:1;stroke:none;font-family:Bitstream Vera Sans"
       d="m 45.20,21.29 c 3.12,2.2e-5 5.57,1.01 7.36,3.04 1.78,2.03 2.67,4.84 2.67,8.43 -2.3e-5,3.58 -0.89,6.39 -2.67,8.43 -1.78,2.03 -4.23,3.04 -7.36,3.04 -3.13,-1e-6 -5.59,-1.01 -7.38,-3.04 -1.77,-2.04 -2.65,-4.85 -2.65,-8.43 -2e-6,-3.59 0.88,-6.40 2.65,-8.43 1.78,-2.03 4.24,-3.04 7.38,-3.04"
       id="path2825" />
    <path
       id="path2827"
       style="font-size:40px;font-style:normal;font-weight:normal;text-align:start;line-height:125%;writing-mode:lr-tb;text-anchor:start;fill:#000000;fill-opacity:1;stroke:none;font-family:Bitstream Vera Sans"
       d="m 78.21,26.02 c 0.89,-1.61 1.97,-2.80 3.22,-3.57 1.24,-0.76 2.72,-1.15 4.41,-1.15 2.27,2.2e-5 4.03,0.80 5.27,2.40 1.23,1.58 1.85,3.85 1.85,6.79 l 0,13.20 -3.61,0 0,-13.08 c -3.2e-5,-2.09 -0.37,-3.65 -1.11,-4.66 -0.74,-1.01 -1.87,-1.52 -3.39,-1.52 -1.86,1.9e-5 -3.33,0.61 -4.41,1.85 -1.08,1.23 -1.62,2.92 -1.62,5.05 l 0,12.36 -3.61,0 0,-13.08 c -1.8e-5,-2.10 -0.37,-3.66 -1.11,-4.66 -0.74,-1.01 -1.88,-1.52 -3.43,-1.52 -1.83,1.9e-5 -3.29,0.62 -4.37,1.87 -1.08,1.23 -1.62,2.91 -1.62,5.03 l 0,12.36 -3.61,0 0,-21.87 3.61,0 0,3.39 c 0.82,-1.34 1.80,-2.33 2.94,-2.96 1.14,-0.63 2.50,-0.95 4.08,-0.95 1.58,2.2e-5 2.93,0.40 4.04,1.21 1.11,0.80 1.94,1.97 2.48,3.51" />
    <path
       style="font-size:40px;font-style:normal;font-weight:normal;text-align:start;line-height:125%;writing-mode:lr-tb;text-anchor:start;fill:#000000;fill-opacity:1;stroke:none;font-family:Bitstream Vera Sans"
       d="m 117.27,31.22 0,12.48 -3.59,0 0,-3.32 c -0.82,1.32 -1.84,2.31 -3.06,2.94 -1.22,0.62 -2.72,0.93 -4.49,0.93 -2.23,-1e-6 -4.02,-0.62 -5.35,-1.87 -1.31,-1.26 -1.97,-2.94 -1.97,-5.05 -2e-6,-2.46 0.82,-4.31 2.46,-5.56 1.65,-1.24 4.11,-1.87 7.38,-1.87 l 5.03,0 0,-0.35 c -2e-5,-1.65 -0.54,-2.92 -1.64,-3.82 -1.08,-0.91 -2.60,-1.36 -4.57,-1.36 -1.25,1.9e-5 -2.46,0.14 -3.65,0.44 -1.18,0.29 -2.32,0.74 -3.41,1.34 l 0,-3.32 c 1.31,-0.50 2.59,-0.88 3.82,-1.13 1.23,-0.26 2.44,-0.39 3.61,-0.39 3.16,2.2e-5 5.52,0.82 7.08,2.46 1.56,1.64 2.34,4.12 2.34,7.46"
       id="path2829" />
    <path
       id="path2831"
       style="font-size:40px;font-style:normal;font-weight:normal;text-align:start;line-height:125%;writing-mode:lr-tb;text-anchor:start;fill:#000000;fill-opacity:1;stroke:none;font-family:Bitstream Vera Sans"
       d="m 138.64,22.47 0,3.39 c -1.01,-0.52 -2.07,-0.91 -3.16,-1.17 -1.09,-0.26 -2.22,-0.39 -3.39,-0.39 -1.78,2e-5 -3.12,0.27 -4.02,0.82 -0.88,0.54 -1.32,1.36 -1.32,2.46 -1e-5,0.83 0.31,1.49 0.95,1.97 0.63,0.46 1.92,0.91 3.84,1.34 l 1.23,0.27 c 2.55,0.54 4.36,1.32 5.42,2.32 1.08,0.98 1.62,2.37 1.62,4.16 -1e-5,2.03 -0.80,3.63 -2.42,4.82 -1.60,1.18 -3.80,1.77 -6.62,1.77 -1.17,-1e-6 -2.39,-0.11 -3.67,-0.35 -1.26,-0.22 -2.59,-0.55 -4.00,-1.01 l 0,-3.71 c 1.32,0.69 2.63,1.21 3.92,1.56 1.28,0.33 2.56,0.50 3.82,0.50 1.69,3e-6 2.99,-0.28 3.90,-0.85 0.91,-0.58 1.36,-1.40 1.36,-2.46 -2e-5,-0.97 -0.33,-1.72 -0.99,-2.24 -0.65,-0.52 -2.08,-1.02 -4.31,-1.50 l -1.25,-0.29 c -2.22,-0.46 -3.83,-1.18 -4.82,-2.14 -0.98,-0.97 -1.48,-2.31 -1.48,-4.00 0,-2.05 0.72,-3.64 2.18,-4.76 1.45,-1.11 3.52,-1.67 6.21,-1.67 1.32,2.2e-5 2.57,0.09 3.75,0.29 1.17,0.19 2.25,0.48 3.24,0.87" />
    <path
       id="path2833"
       style="font-size:40px;font-style:normal;font-weight:normal;text-align:start;line-height:125%;writing-mode:lr-tb;text-anchor:start;fill:#000000;fill-opacity:1;stroke:none;font-family:Bitstream Vera Sans"
       d="m 146.06,38.74 4.12,0 0,4.96 -4.12,0 0,-4.96" />
    <path
       style="font-size:40px;font-style:normal;font-weight:normal;text-align:start;line-height:125%;writing-mode:lr-tb;text-anchor:start;fill:#000000;fill-opacity:1;stroke:none;font-family:Bitstream Vera Sans"
       d="m 158.15,13.31 3.61,0 0,17.94 10.72,-9.43 4.58,0 -11.60,10.23 12.08,11.64 -4.68,0 -11.11,-10.68 0,10.68 -3.61,0 0,-30.39"
       id="path2835" />
    <path
       id="path2837"
       style="font-size:40px;font-style:normal;font-weight:normal;text-align:start;line-height:125%;writing-mode:lr-tb;text-anchor:start;fill:#000000;fill-opacity:1;stroke:none;font-family:Bitstream Vera Sans"
       d="m 181.49,21.82 3.59,0 0,21.87 -3.59,0 0,-21.87 m 0,-8.51 3.59,0 0,4.55 -3.59,0 0,-4.55" />
    <path
       id="path2839"
       style="font-size:40px;font-style:normal;font-weight:normal;text-align:start;line-height:125%;writing-mode:lr-tb;text-anchor:start;fill:#000000;fill-opacity:1;stroke:none;font-family:Bitstream Vera Sans"
       d="m 210.77,30.49 0,13.20 -3.59,0 0,-13.08 c -2e-5,-2.07 -0.40,-3.61 -1.21,-4.64 -0.80,-1.02 -2.01,-1.54 -3.63,-1.54 -1.94,1.9e-5 -3.47,0.61 -4.58,1.85 -1.11,1.23 -1.67,2.92 -1.67,5.05 l 0,12.36 -3.61,0 0,-21.87 3.61,0 0,3.39 c 0.85,-1.31 1.86,-2.29 3.02,-2.94 1.17,-0.65 2.51,-0.97 4.04,-0.97 2.51,2.2e-5 4.41,0.78 5.70,2.34 1.28,1.54 1.93,3.83 1.93,6.85" />
    <path
       style="font-size:40px;font-style:normal;font-weight:normal;text-align:start;line-height:125%;writing-mode:lr-tb;text-anchor:start;fill:#000000;fill-opacity:1;stroke:none;font-family:Bitstream Vera Sans"
       d="m 232.37,25.14 0,-11.83 3.59,0 0,30.39 -3.59,0 0,-3.28 c -0.75,1.30 -1.71,2.27 -2.87,2.91 -1.14,0.62 -2.52,0.93 -4.14,0.93 -2.64,-1e-6 -4.79,-1.05 -6.46,-3.16 -1.65,-2.10 -2.48,-4.88 -2.48,-8.32 -1e-5,-3.43 0.82,-6.21 2.48,-8.32 1.66,-2.10 3.82,-3.16 6.46,-3.16 1.61,2.2e-5 2.99,0.31 4.14,0.95 1.15,0.62 2.11,1.58 2.87,2.89"
       id="path2897" />
    <path
       style="font-size:40px;font-style:normal;font-weight:normal;text-align:start;line-height:125%;writing-mode:lr-tb;text-anchor:start;fill:#000000;fill-opacity:1;stroke:none;font-family:Bitstream Vera Sans"
       d="m 260.47,31.22 0,12.48 -3.59,0 0,-3.32 c -0.82,1.32 -1.84,2.31 -3.06,2.94 -1.22,0.62 -2.72,0.93 -4.49,0.93 -2.23,-1e-6 -4.02,-0.62 -5.35,-1.87 -1.31,-1.26 -1.97,-2.94 -1.97,-5.05 0,-2.46 0.82,-4.31 2.46,-5.56 1.65,-1.24 4.11,-1.87 7.38,-1.87 l 5.03,0 0,-0.35 c -2e-5,-1.65 -0.54,-2.92 -1.64,-3.82 -1.08,-0.91 -2.60,-1.36 -4.57,-1.36 -1.25,1.9e-5 -2.46,0.14 -3.65,0.44 -1.18,0.29 -2.32,0.74 -3.41,1.34 l 0,-3.32 c 1.31,-0.50 2.59,-0.88 3.82,-1.13 1.23,-0.26 2.44,-0.39 3.61,-0.39 3.16,2.2e-5 5.52,0.82 7.08,2.46 1.56,1.64 2.34,4.12 2.34,7.46"
       id="path2843" />
    <path
       id="path2909"
       style="font-size:40px;font-style:normal;font-weight:normal;text-align:start;line-height:125%;writing-mode:lr-tb;text-anchor:start;fill:#ffff00;fill-opacity:1;stroke:none;font-family:Bitstream Vera Sans"
       d="m 253.31,32.70 c -2.90,1.1e-5 -4.91,0.33 -6.03,0.99 -1.11,0.66 -1.67,1.79 -1.67,3.39 0,1.27 0.41,2.29 1.25,3.04 0.84,0.74 1.99,1.11 3.43,1.11 1.99,3e-6 3.58,-0.70 4.78,-2.10 1.21,-1.41 1.81,-3.30 1.81,-5.64 l 0,-0.80 -3.57,0 m -143.20,0 c -2.90,1.1e-5 -4.91,0.33 -6.03,0.99 -1.11,0.66 -1.67,1.79 -1.67,3.39 -1e-5,1.27 0.41,2.29 1.25,3.04 0.84,0.74 1.99,1.11 3.43,1.11 1.99,3e-6 3.58,-0.70 4.78,-2.10 1.21,-1.41 1.81,-3.30 1.81,-5.64 l 0,-0.80 -3.57,0" />
    <path
       id="path2845"
       style="font-size:40px;font-style:normal;font-weight:normal;text-align:start;line-height:125%;writing-mode:lr-tb;text-anchor:start;fill:#000000;fill-opacity:1;stroke:none;font-family:Bitstream Vera Sans"
       d="m 286.08,30.49 0,13.20 -3.59,0 0,-13.08 c -2e-5,-2.07 -0.40,-3.61 -1.21,-4.64 -0.80,-1.02 -2.01,-1.54 -3.63,-1.54 -1.94,1.9e-5 -3.47,0.61 -4.58,1.85 -1.11,1.23 -1.67,2.92 -1.67,5.05 l 0,12.36 -3.61,0 0,-30.39 3.61,0 0,11.91 c 0.85,-1.31 1.86,-2.29 3.02,-2.94 1.17,-0.65 2.51,-0.97 4.04,-0.97 2.51,2.2e-5 4.41,0.78 5.70,2.34 1.28,1.54 1.93,3.83 1.93,6.85" />
    <path
       id="path2847"
       style="font-size:40px;font-style:normal;font-weight:normal;text-align:start;line-height:125%;writing-mode:lr-tb;text-anchor:start;fill:#000000;fill-opacity:1;stroke:none;font-family:Bitstream Vera Sans"
       d="m 293.29,13.31 3.59,0 0,30.39 -3.59,0 0,-30.39" />
    <path
       style="font-size:40px;font-style:normal;font-weight:normal;text-align:start;line-height:125%;writing-mode:lr-tb;text-anchor:start;fill:#000000;fill-opacity:1;stroke:none;font-family:Bitstream Vera Sans"
       d="m 326.14,39.05 c -0.78,1.00 -1.67,1.74 -2.69,2.22 -1.00,0.46 -2.17,0.70 -3.51,0.70 -2.23,10e-7 -4.06,-0.80 -5.46,-2.42 -1.39,-1.62 -2.08,-3.74 -2.08,-6.34 -1e-5,-2.60 0.70,-4.72 2.10,-6.34 1.40,-1.62 3.22,-2.44 5.44,-2.44 1.34,1.9e-5 2.51,0.24 3.53,0.74 1.01,0.48 1.90,1.21 2.67,2.20 l 0,-2.55 2.79,0 0,14.37 c 1.90,-0.28 3.38,-1.15 4.45,-2.59 1.08,-1.45 1.62,-3.33 1.62,-5.64 -4e-5,-1.39 -0.20,-2.70 -0.62,-3.92 -0.40,-1.22 -1.02,-2.35 -1.85,-3.39 -1.35,-1.70 -3.00,-3.00 -4.96,-3.90 -1.94,-0.91 -4.05,-1.36 -6.34,-1.36 -1.60,2.6e-5 -3.13,0.21 -4.60,0.64 -1.47,0.41 -2.83,1.04 -4.08,1.87 -2.04,1.32 -3.64,3.07 -4.80,5.23 -1.14,2.14 -1.71,4.47 -1.71,6.99 0,2.07 0.37,4.01 1.11,5.82 0.75,1.80 1.84,3.40 3.26,4.78 1.36,1.35 2.94,2.38 4.74,3.08 1.79,0.71 3.71,1.07 5.76,1.07 1.67,-4e-6 3.32,-0.28 4.94,-0.85 1.62,-0.55 3.11,-1.36 4.47,-2.42 l 1.75,2.16 c -1.62,1.26 -3.40,2.22 -5.33,2.89 -1.91,0.67 -3.86,1.01 -5.83,1.01 -2.40,-7e-6 -4.68,-0.42 -6.81,-1.28 -2.13,-0.84 -4.03,-2.08 -5.70,-3.71 -1.66,-1.62 -2.93,-3.50 -3.80,-5.64 -0.87,-2.14 -1.30,-4.45 -1.30,-6.91 0,-2.36 0.44,-4.62 1.32,-6.77 0.88,-2.14 2.14,-4.03 3.78,-5.66 1.67,-1.65 3.61,-2.91 5.82,-3.78 2.20,-0.88 4.53,-1.32 6.99,-1.32 2.76,2.8e-5 5.31,0.56 7.67,1.69 2.36,1.13 4.35,2.74 5.95,4.82 0.97,1.27 1.71,2.66 2.22,4.16 0.52,1.49 0.78,3.04 0.78,4.64 -4e-5,3.42 -1.03,6.12 -3.10,8.10 -2.07,1.97 -4.92,3.00 -8.57,3.08 l 0,-3.00"
       id="path2849" />
    <path
       id="path2913"
       style="font-size:40px;font-style:normal;font-weight:normal;text-align:start;line-height:125%;writing-mode:lr-tb;text-anchor:start;fill:#ffff00;fill-opacity:1;stroke:none;font-family:Bitstream Vera Sans"
       d="m 315.49,33.21 c -2e-5,1.86 0.46,3.32 1.38,4.39 0.92,1.05 2.19,1.58 3.80,1.58 1.60,4e-6 2.85,-0.53 3.76,-1.60 0.92,-1.06 1.38,-2.52 1.38,-4.37 -2e-5,-1.82 -0.46,-3.26 -1.40,-4.33 -0.93,-1.08 -2.20,-1.62 -3.78,-1.62 -1.57,1.7e-5 -2.83,0.53 -3.76,1.60 -0.92,1.06 -1.38,2.51 -1.38,4.35 m -95.37,-0.42 c 0,2.64 0.54,4.72 1.62,6.23 1.09,1.49 2.59,2.24 4.49,2.24 1.90,3e-6 3.39,-0.74 4.49,-2.24 1.09,-1.51 1.64,-3.58 1.64,-6.23 -2e-5,-2.64 -0.54,-4.71 -1.64,-6.21 -1.09,-1.51 -2.59,-2.26 -4.49,-2.26 -1.90,2e-5 -3.39,0.75 -4.49,2.26 -1.08,1.49 -1.62,3.56 -1.62,6.21" />
    <path
       id="path2851"
       style="font-size:40px;font-style:normal;font-weight:normal;text-align:start;line-height:125%;writing-mode:lr-tb;text-anchor:start;fill:#000000;fill-opacity:1;stroke:none;font-family:Bitstream Vera Sans"
       d="m 360.12,22.66 0,3.35 c -1.01,-0.55 -2.03,-0.97 -3.06,-1.25 -1.01,-0.28 -2.04,-0.42 -3.08,-0.42 -2.33,1.9e-5 -4.14,0.74 -5.42,2.22 -1.28,1.47 -1.93,3.54 -1.93,6.21 -10e-6,2.66 0.64,4.74 1.93,6.23 1.28,1.47 3.09,2.20 5.42,2.20 1.04,2e-6 2.07,-0.13 3.08,-0.41 1.02,-0.28 2.05,-0.70 3.06,-1.26 l 0,3.32 c -1.00,0.46 -2.04,0.82 -3.12,1.05 -1.06,0.23 -2.20,0.35 -3.41,0.35 -3.29,-1e-6 -5.91,-1.03 -7.85,-3.10 -1.94,-2.07 -2.91,-4.86 -2.91,-8.37 -10e-6,-3.56 0.97,-6.37 2.92,-8.41 1.96,-2.04 4.65,-3.06 8.06,-3.06 1.10,2.2e-5 2.18,0.11 3.24,0.35 1.05,0.22 2.07,0.55 3.06,1.01" />
    <path
       style="font-size:40px;font-style:normal;font-weight:normal;text-align:start;line-height:125%;writing-mode:lr-tb;text-anchor:start;fill:#000000;fill-opacity:1;stroke:none;font-family:Bitstream Vera Sans"
       d="m 374.89,21.29 c 3.12,2.2e-5 5.57,1.01 7.36,3.04 1.78,2.03 2.67,4.84 2.67,8.43 -2e-5,3.58 -0.89,6.39 -2.67,8.43 -1.78,2.03 -4.23,3.04 -7.36,3.04 -3.13,-1e-6 -5.59,-1.01 -7.38,-3.04 -1.77,-2.04 -2.65,-4.85 -2.65,-8.43 -10e-6,-3.59 0.88,-6.40 2.65,-8.43 1.78,-2.03 4.24,-3.04 7.38,-3.04"
       id="path2853" />
    <path
       id="path2917"
       style="font-size:40px;font-style:normal;font-weight:normal;text-align:start;line-height:125%;writing-mode:lr-tb;text-anchor:start;fill:#ffff00;fill-opacity:1;stroke:none;font-family:Bitstream Vera Sans"
       d="m 374.89,24.34 c -1.92,1.9e-5 -3.45,0.75 -4.57,2.26 -1.11,1.49 -1.67,3.55 -1.67,6.17 -10e-6,2.61 0.55,4.68 1.66,6.19 1.11,1.49 2.64,2.24 4.58,2.24 1.91,2e-6 3.43,-0.75 4.55,-2.26 1.11,-1.51 1.67,-3.56 1.67,-6.17 -2e-5,-2.59 -0.55,-4.64 -1.67,-6.15 -1.11,-1.52 -2.63,-2.28 -4.55,-2.28 m -329.68,0 c -1.92,1.9e-5 -3.45,0.75 -4.57,2.26 -1.11,1.49 -1.67,3.55 -1.67,6.17 -6e-6,2.61 0.55,4.68 1.66,6.19 1.11,1.49 2.64,2.24 4.58,2.24 1.91,2e-6 3.43,-0.75 4.55,-2.26 1.11,-1.51 1.67,-3.56 1.67,-6.17 -1.8e-5,-2.59 -0.55,-4.64 -1.67,-6.15 -1.11,-1.52 -2.63,-2.28 -4.55,-2.28" />
    <path
       id="path2855"
       style="font-size:40px;font-style:normal;font-weight:normal;text-align:start;line-height:125%;writing-mode:lr-tb;text-anchor:start;fill:#000000;fill-opacity:1;stroke:none;font-family:Bitstream Vera Sans"
       d="m 407.90,26.02 c 0.89,-1.61 1.97,-2.80 3.22,-3.57 1.24,-0.76 2.72,-1.15 4.41,-1.15 2.27,2.2e-5 4.03,0.80 5.27,2.40 1.23,1.58 1.85,3.85 1.85,6.79 l 0,13.20 -3.61,0 0,-13.08 c -4e-5,-2.09 -0.37,-3.65 -1.11,-4.66 -0.74,-1.01 -1.87,-1.52 -3.39,-1.52 -1.86,1.9e-5 -3.33,0.61 -4.41,1.85 -1.08,1.23 -1.62,2.92 -1.62,5.05 l 0,12.36 -3.61,0 0,-13.08 c -2e-5,-2.10 -0.37,-3.66 -1.11,-4.66 -0.74,-1.01 -1.88,-1.52 -3.43,-1.52 -1.83,1.9e-5 -3.29,0.62 -4.37,1.87 -1.08,1.23 -1.62,2.91 -1.62,5.03 l 0,12.36 -3.61,0 0,-21.87 3.61,0 0,3.39 c 0.82,-1.34 1.80,-2.33 2.94,-2.96 1.14,-0.63 2.50,-0.95 4.08,-0.95 1.58,2.2e-5 2.93,0.40 4.04,1.21 1.11,0.80 1.94,1.97 2.48,3.51" />
    <path
       id="path2857"
       style="font-size:40px;font-style:normal;font-weight:normal;text-align:start;line-height:125%;writing-mode:lr-tb;text-anchor:start;fill:#000000;fill-opacity:1;stroke:none;font-family:Bitstream Vera Sans"
       d="m 448.03,30.49 0,13.20 -3.59,0 0,-13.08 c -2e-5,-2.07 -0.40,-3.61 -1.21,-4.64 -0.80,-1.02 -2.01,-1.54 -3.63,-1.54 -1.94,1.9e-5 -3.47,0.61 -4.58,1.85 -1.11,1.23 -1.67,2.92 -1.67,5.05 l 0,12.36 -3.61,0 0,-30.39 3.61,0 0,11.91 c 0.85,-1.31 1.86,-2.29 3.02,-2.94 1.17,-0.65 2.51,-0.97 4.04,-0.97 2.51,2.2e-5 4.41,0.78 5.70,2.34 1.28,1.54 1.93,3.83 1.93,6.85" />
    <path
       style="font-size:40px;font-style:normal;font-weight:normal;text-align:start;line-height:125%;writing-mode:lr-tb;text-anchor:start;fill:#000000;fill-opacity:1;stroke:none;font-family:Bitstream Vera Sans"
       d="m 473.95,31.86 0,1.75 -16.52,0 c 0.15,2.47 0.89,4.36 2.22,5.66 1.34,1.28 3.20,1.93 5.58,1.93 1.38,2e-6 2.71,-0.16 4.00,-0.50 1.30,-0.33 2.59,-0.84 3.86,-1.52 l 0,3.39 c -1.28,0.54 -2.61,0.96 -3.96,1.25 -1.35,0.28 -2.72,0.42 -4.12,0.42 -3.48,-1e-6 -6.25,-1.01 -8.30,-3.04 -2.03,-2.03 -3.04,-4.77 -3.04,-8.24 0,-3.58 0.96,-6.41 2.89,-8.51 1.94,-2.10 4.55,-3.16 7.83,-3.16 2.94,2.2e-5 5.26,0.95 6.97,2.85 1.71,1.88 2.57,4.45 2.57,7.71"
       id="path2921" />
    <path
       id="path2861"
       style="font-size:40px;font-style:normal;font-weight:normal;text-align:start;line-height:125%;writing-mode:lr-tb;text-anchor:start;fill:#000000;fill-opacity:1;stroke:none;font-family:Bitstream Vera Sans"
       d="m 496.88,26.02 c 0.89,-1.61 1.97,-2.80 3.22,-3.57 1.24,-0.76 2.72,-1.15 4.41,-1.15 2.27,2.2e-5 4.03,0.80 5.27,2.40 1.23,1.58 1.85,3.85 1.85,6.79 l 0,13.20 -3.61,0 0,-13.08 c -3e-5,-2.09 -0.37,-3.65 -1.11,-4.66 -0.74,-1.01 -1.87,-1.52 -3.39,-1.52 -1.86,1.9e-5 -3.33,0.61 -4.41,1.85 -1.08,1.23 -1.62,2.92 -1.62,5.05 l 0,12.36 -3.61,0 0,-13.08 c -1e-5,-2.10 -0.37,-3.66 -1.11,-4.66 -0.74,-1.01 -1.88,-1.52 -3.43,-1.52 -1.83,1.9e-5 -3.29,0.62 -4.37,1.87 -1.08,1.23 -1.62,2.91 -1.62,5.03 l 0,12.36 -3.61,0 0,-21.87 3.61,0 0,3.39 c 0.82,-1.34 1.80,-2.33 2.94,-2.96 1.14,-0.63 2.50,-0.95 4.08,-0.95 1.58,2.2e-5 2.93,0.40 4.04,1.21 1.11,0.80 1.94,1.97 2.48,3.51" />
    <path
       id="path2863"
       style="font-size:40px;font-style:normal;font-weight:normal;text-align:start;line-height:125%;writing-mode:lr-tb;text-anchor:start;fill:#000000;fill-opacity:1;stroke:none;font-family:Bitstream Vera Sans"
       d="m 519.34,38.74 4.12,0 0,4.96 -4.12,0 0,-4.96" />
    <path
       id="path2865"
       style="font-size:40px;font-style:normal;font-weight:normal;text-align:start;line-height:125%;writing-mode:lr-tb;text-anchor:start;fill:#000000;fill-opacity:1;stroke:none;font-family:Bitstream Vera Sans"
       d="m 545.51,22.47 0,3.39 c -1.01,-0.52 -2.07,-0.91 -3.16,-1.17 -1.09,-0.26 -2.22,-0.39 -3.39,-0.39 -1.78,2e-5 -3.12,0.27 -4.02,0.82 -0.88,0.54 -1.32,1.36 -1.32,2.46 -1e-5,0.83 0.31,1.49 0.95,1.97 0.63,0.46 1.92,0.91 3.84,1.34 l 1.23,0.27 c 2.55,0.54 4.36,1.32 5.42,2.32 1.08,0.98 1.62,2.37 1.62,4.16 -10e-6,2.03 -0.80,3.63 -2.42,4.82 -1.60,1.18 -3.80,1.77 -6.62,1.77 -1.17,-1e-6 -2.39,-0.11 -3.67,-0.35 -1.26,-0.22 -2.59,-0.55 -4.00,-1.01 l 0,-3.71 c 1.32,0.69 2.63,1.21 3.92,1.56 1.28,0.33 2.56,0.50 3.82,0.50 1.69,3e-6 2.99,-0.28 3.90,-0.85 0.91,-0.58 1.36,-1.40 1.36,-2.46 -2e-5,-0.97 -0.33,-1.72 -0.99,-2.24 -0.65,-0.52 -2.08,-1.02 -4.31,-1.50 l -1.25,-0.29 c -2.22,-0.46 -3.83,-1.18 -4.82,-2.14 -0.98,-0.97 -1.48,-2.31 -1.48,-4.00 0,-2.05 0.72,-3.64 2.18,-4.76 1.45,-1.11 3.52,-1.67 6.21,-1.67 1.32,2.2e-5 2.57,0.09 3.75,0.29 1.17,0.19 2.25,0.48 3.24,0.87" />
    <path
       style="font-size:40px;font-style:normal;font-weight:normal;text-align:start;line-height:125%;writing-mode:lr-tb;text-anchor:start;fill:#000000;fill-opacity:1;stroke:none;font-family:Bitstream Vera Sans"
       d="m 571.14,31.86 0,1.75 -16.52,0 c 0.15,2.47 0.89,4.36 2.22,5.66 1.34,1.28 3.20,1.93 5.58,1.93 1.38,2e-6 2.71,-0.16 4.00,-0.50 1.30,-0.33 2.59,-0.84 3.86,-1.52 l 0,3.39 c -1.28,0.54 -2.61,0.96 -3.96,1.25 -1.35,0.28 -2.72,0.42 -4.12,0.42 -3.48,-1e-6 -6.25,-1.01 -8.30,-3.04 -2.03,-2.03 -3.04,-4.77 -3.04,-8.24 0,-3.58 0.96,-6.41 2.89,-8.51 1.94,-2.10 4.55,-3.16 7.83,-3.16 2.94,2.2e-5 5.26,0.95 6.97,2.85 1.71,1.88 2.57,4.45 2.57,7.71"
       id="path2925" />
    <path
       id="path2867"
       style="font-size:40px;font-style:normal;font-weight:normal;text-align:start;line-height:125%;writing-mode:lr-tb;text-anchor:start;fill:#ffff00;fill-opacity:1;stroke:none;font-family:Bitstream Vera Sans"
       d="m 567.54,30.81 c -0.02,-1.96 -0.57,-3.53 -1.66,-4.70 -1.06,-1.17 -2.48,-1.75 -4.25,-1.75 -2.00,1.9e-5 -3.61,0.56 -4.82,1.69 -1.19,1.13 -1.88,2.72 -2.07,4.78 l 12.81,-0.01 m -97.18,-1e-6 c -0.02,-1.96 -0.57,-3.53 -1.66,-4.70 -1.06,-1.17 -2.48,-1.75 -4.25,-1.75 -2.00,1.9e-5 -3.61,0.56 -4.82,1.69 -1.19,1.13 -1.88,2.72 -2.07,4.78 l 12.81,-0.01" />
  </g>
</svg>
