<?xml version="1.0" encoding="UTF-8" standalone="no"?>
<!-- Created with Inkscape (http://www.inkscape.org/) -->
<svg
   xmlns:dc="http://purl.org/dc/elements/1.1/"
   xmlns:cc="http://creativecommons.org/ns#"
   xmlns:rdf="http://www.w3.org/1999/02/22-rdf-syntax-ns#"
   xmlns:svg="http://www.w3.org/2000/svg"
   xmlns="http://www.w3.org/2000/svg"
   xmlns:xlink="http://www.w3.org/1999/xlink"
   xmlns:sodipodi="http://sodipodi.sourceforge.net/DTD/sodipodi-0.dtd"
   xmlns:inkscape="http://www.inkscape.org/namespaces/inkscape"
   width="720"
   height="390"
   id="svg2"
   sodipodi:version="0.32"
   inkscape:version="0.46"
   sodipodi:docname="logo.svg"
   inkscape:output_extension="org.inkscape.output.svg.inkscape"
   version="1.0">
  <defs
     id="defs4">
    <linearGradient
       inkscape:collect="always"
       id="linearGradient3277">
      <stop
         style="stop-color:#ffffff;stop-opacity:1;"
         offset="0"
         id="stop3279" />
      <stop
         style="stop-color:#ffffff;stop-opacity:0;"
         offset="1"
         id="stop3281" />
    </linearGradient>
    <inkscape:perspective
       sodipodi:type="inkscape:persp3d"
       inkscape:vp_x="0 : 526.18109 : 1"
       inkscape:vp_y="6.1230318e-14 : 1000 : 0"
       inkscape:vp_z="744.09448 : 526.18109 : 1"
       inkscape:persp3d-origin="372.04724 : 350.78739 : 1"
       id="perspective10" />
    <radialGradient
       inkscape:collect="always"
       xlink:href="#linearGradient3277"
       id="radialGradient3283"
       cx="249.2009"
       cy="135.41304"
       fx="249.2009"
       fy="135.41304"
       r="12.391205"
       gradientUnits="userSpaceOnUse" />
    <radialGradient
       inkscape:collect="always"
       xlink:href="#linearGradient3277"
       id="radialGradient3312"
       gradientUnits="userSpaceOnUse"
       cx="249.2009"
       cy="135.41304"
       fx="249.2009"
       fy="135.41304"
       r="12.391205" />
  </defs>
  <sodipodi:namedview
     id="base"
     pagecolor="#ffffff"
     bordercolor="#666666"
     borderopacity="1.0"
     gridtolerance="10000"
     guidetolerance="10"
     objecttolerance="10"
     inkscape:pageopacity="0.0"
     inkscape:pageshadow="2"
     inkscape:zoom="1"
     inkscape:cx="329.50034"
     inkscape:cy="180.5789"
     inkscape:document-units="px"
     inkscape:current-layer="layer1"
     showgrid="false"
     inkscape:window-width="1061"
     inkscape:window-height="720"
     inkscape:window-x="149"
     inkscape:window-y="189" />
  <metadata
     id="metadata7">
    <rdf:RDF>
      <cc:Work
         rdf:about="">
        <dc:format>image/svg+xml</dc:format>
        <dc:type
           rdf:resource="http://purl.org/dc/dcmitype/StillImage" />
      </cc:Work>
    </rdf:RDF>
  </metadata>
  <g
     inkscape:label="Layer 1"
     inkscape:groupmode="layer"
     id="layer1"
     transform="translate(-28.07011,-29.003686)">
    <path
       sodipodi:type="arc"
       style="fill:#030088;fill-opacity:1;fill-rule:nonzero;stroke:#000000;stroke-width:1;stroke-linecap:butt;stroke-linejoin:round;stroke-miterlimit:4;stroke-dasharray:none;stroke-dashoffset:0;stroke-opacity:1"
       id="path3155"
       sodipodi:cx="374.28571"
       sodipodi:cy="388.07648"
       sodipodi:rx="345.71429"
       sodipodi:ry="358.57144"
       d="M 28.640859,395.26336 A 345.71429,358.57144 0 1 1 719.93791,394.87193"
       sodipodi:start="3.1215482"
       sodipodi:end="6.3021379"
       sodipodi:open="true"
       transform="translate(11.68254,13.62963)" />
    <g
       id="g2433">
      <path
         transform="matrix(0.5165112,0.4174308,-0.7417468,0.8664288,233.24924,-81.585377)"
         d="M 261.5921,135.41304 A 12.391205,12.391205 0 1 1 236.80969,135.41304 A 12.391205,12.391205 0 1 1 261.5921,135.41304 z"
         sodipodi:ry="12.391205"
         sodipodi:rx="12.391205"
         sodipodi:cy="135.41304"
         sodipodi:cx="249.2009"
         id="path3211"
         style="fill:#ffffff;fill-opacity:1;fill-rule:nonzero;stroke:none;stroke-width:4;stroke-linecap:butt;stroke-linejoin:round;stroke-miterlimit:4;stroke-dasharray:none;stroke-dashoffset:0;stroke-opacity:1"
         sodipodi:type="arc" />
      <path
         transform="matrix(0.117267,0.117715,-0.1701957,0.2160164,221.51447,51.155216)"
         d="M 261.5921,135.41304 A 12.391205,12.391205 0 1 1 236.80969,135.41304 A 12.391205,12.391205 0 1 1 261.5921,135.41304 z"
         sodipodi:ry="12.391205"
         sodipodi:rx="12.391205"
         sodipodi:cy="135.41304"
         sodipodi:cx="249.2009"
         id="path3213"
         style="fill:#ffffff;fill-opacity:1;fill-rule:nonzero;stroke:none;stroke-width:4;stroke-linecap:butt;stroke-linejoin:round;stroke-miterlimit:4;stroke-dasharray:none;stroke-dashoffset:0;stroke-opacity:1"
         sodipodi:type="arc" />
      <path
         transform="matrix(0.156515,9.976711e-2,-0.1641788,0.2240917,205.35489,59.153613)"
         d="M 261.5921,135.41304 A 12.391205,12.391205 0 1 1 236.80969,135.41304 A 12.391205,12.391205 0 1 1 261.5921,135.41304 z"
         sodipodi:ry="12.391205"
         sodipodi:rx="12.391205"
         sodipodi:cy="135.41304"
         sodipodi:cx="249.2009"
         id="path3215"
         style="fill:#ffffff;fill-opacity:1;fill-rule:nonzero;stroke:none;stroke-width:4;stroke-linecap:butt;stroke-linejoin:round;stroke-miterlimit:4;stroke-dasharray:none;stroke-dashoffset:0;stroke-opacity:1"
         sodipodi:type="arc" />
      <path
         transform="matrix(0.1896815,0.1799227,-0.2857777,0.2844129,206.5401,83.164507)"
         d="M 261.5921,135.41304 A 12.391205,12.391205 0 1 1 236.80969,135.41304 A 12.391205,12.391205 0 1 1 261.5921,135.41304 z"
         sodipodi:ry="12.391205"
         sodipodi:rx="12.391205"
         sodipodi:cy="135.41304"
         sodipodi:cx="249.2009"
         id="path3217"
         style="fill:#ffffff;fill-opacity:1;fill-rule:nonzero;stroke:none;stroke-width:4;stroke-linecap:butt;stroke-linejoin:round;stroke-miterlimit:4;stroke-dasharray:none;stroke-dashoffset:0;stroke-opacity:1"
         sodipodi:type="arc" />
      <path
         transform="matrix(0.2226263,0.1285279,-0.2708612,0.4429021,121.42291,147.92742)"
         d="M 261.5921,135.41304 A 12.391205,12.391205 0 1 1 236.80969,135.41304 A 12.391205,12.391205 0 1 1 261.5921,135.41304 z"
         sodipodi:ry="12.391205"
         sodipodi:rx="12.391205"
         sodipodi:cy="135.41304"
         sodipodi:cx="249.2009"
         id="path3219"
         style="fill:#ffffff;fill-opacity:1;fill-rule:nonzero;stroke:none;stroke-width:4;stroke-linecap:butt;stroke-linejoin:round;stroke-miterlimit:4;stroke-dasharray:none;stroke-dashoffset:0;stroke-opacity:1"
         sodipodi:type="arc" />
      <path
         transform="matrix(0.2399748,0.1269512,-0.2535585,0.452469,78.65368,147.02484)"
         d="M 261.5921,135.41304 A 12.391205,12.391205 0 1 1 236.80969,135.41304 A 12.391205,12.391205 0 1 1 261.5921,135.41304 z"
         sodipodi:ry="12.391205"
         sodipodi:rx="12.391205"
         sodipodi:cy="135.41304"
         sodipodi:cx="249.2009"
         id="path3221"
         style="fill:#ffffff;fill-opacity:1;fill-rule:nonzero;stroke:none;stroke-width:4;stroke-linecap:butt;stroke-linejoin:round;stroke-miterlimit:4;stroke-dasharray:none;stroke-dashoffset:0;stroke-opacity:1"
         sodipodi:type="arc" />
      <path
         transform="matrix(0.1647703,0.1115684,-0.2339005,0.3260998,158.13853,95.525922)"
         d="M 261.5921,135.41304 A 12.391205,12.391205 0 1 1 236.80969,135.41304 A 12.391205,12.391205 0 1 1 261.5921,135.41304 z"
         sodipodi:ry="12.391205"
         sodipodi:rx="12.391205"
         sodipodi:cy="135.41304"
         sodipodi:cx="249.2009"
         id="path3223"
         style="fill:#ffffff;fill-opacity:1;fill-rule:nonzero;stroke:none;stroke-width:4;stroke-linecap:butt;stroke-linejoin:round;stroke-miterlimit:4;stroke-dasharray:none;stroke-dashoffset:0;stroke-opacity:1"
         sodipodi:type="arc" />
      <path
         transform="matrix(0.2952209,0.1395898,-0.1790122,0.3574024,257.89092,113.96263)"
         d="M 261.5921,135.41304 A 12.391205,12.391205 0 1 1 236.80969,135.41304 A 12.391205,12.391205 0 1 1 261.5921,135.41304 z"
         sodipodi:ry="12.391205"
         sodipodi:rx="12.391205"
         sodipodi:cy="135.41304"
         sodipodi:cx="249.2009"
         id="path3225"
         style="fill:#ffffff;fill-opacity:1;fill-rule:nonzero;stroke:none;stroke-width:4;stroke-linecap:butt;stroke-linejoin:round;stroke-miterlimit:4;stroke-dasharray:none;stroke-dashoffset:0;stroke-opacity:1"
         sodipodi:type="arc" />
    </g>
    <g
       id="g2443">
      <path
         transform="matrix(-4.1065817e-2,0.5391619,-0.5420502,-5.4915015e-2,521.09241,212.11771)"
         d="M 261.5921,135.41304 A 12.391205,12.391205 0 1 1 236.80969,135.41304 A 12.391205,12.391205 0 1 1 261.5921,135.41304 z"
         sodipodi:ry="12.391205"
         sodipodi:rx="12.391205"
         sodipodi:cy="135.41304"
         sodipodi:cx="249.2009"
         id="path3247"
         style="fill:#ffffff;fill-opacity:1;fill-rule:nonzero;stroke:none;stroke-width:4;stroke-linecap:butt;stroke-linejoin:round;stroke-miterlimit:4;stroke-dasharray:none;stroke-dashoffset:0;stroke-opacity:1"
         sodipodi:type="arc" />
      <path
         transform="matrix(0.2952209,0.1395898,-0.1790122,0.3574024,329.27115,92.019036)"
         d="M 261.5921,135.41304 A 12.391205,12.391205 0 1 1 236.80969,135.41304 A 12.391205,12.391205 0 1 1 261.5921,135.41304 z"
         sodipodi:ry="12.391205"
         sodipodi:rx="12.391205"
         sodipodi:cy="135.41304"
         sodipodi:cx="249.2009"
         id="path3227"
         style="fill:#ffffff;fill-opacity:1;fill-rule:nonzero;stroke:none;stroke-width:4;stroke-linecap:butt;stroke-linejoin:round;stroke-miterlimit:4;stroke-dasharray:none;stroke-dashoffset:0;stroke-opacity:1"
         sodipodi:type="arc" />
      <path
         transform="matrix(0.4100048,3.8391926e-2,-3.9691265e-2,0.4370756,427.74191,94.573952)"
         d="M 261.5921,135.41304 A 12.391205,12.391205 0 1 1 236.80969,135.41304 A 12.391205,12.391205 0 1 1 261.5921,135.41304 z"
         sodipodi:ry="12.391205"
         sodipodi:rx="12.391205"
         sodipodi:cy="135.41304"
         sodipodi:cx="249.2009"
         id="path3231"
         style="fill:#ffffff;fill-opacity:1;fill-rule:nonzero;stroke:none;stroke-width:4;stroke-linecap:butt;stroke-linejoin:round;stroke-miterlimit:4;stroke-dasharray:none;stroke-dashoffset:0;stroke-opacity:1"
         sodipodi:type="arc" />
      <path
         transform="matrix(0.2161011,-6.5234354e-2,0.1719266,0.2915275,517.45178,112.2266)"
         d="M 261.5921,135.41304 A 12.391205,12.391205 0 1 1 236.80969,135.41304 A 12.391205,12.391205 0 1 1 261.5921,135.41304 z"
         sodipodi:ry="12.391205"
         sodipodi:rx="12.391205"
         sodipodi:cy="135.41304"
         sodipodi:cx="249.2009"
         id="path3233"
         style="fill:#ffffff;fill-opacity:1;fill-rule:nonzero;stroke:none;stroke-width:4;stroke-linecap:butt;stroke-linejoin:round;stroke-miterlimit:4;stroke-dasharray:none;stroke-dashoffset:0;stroke-opacity:1"
         sodipodi:type="arc" />
      <path
         inkscape:transform-center-y="4.9511329"
         transform="matrix(0.3231203,-4.7264891e-2,4.8876175e-2,0.3967278,603.87514,314.86345)"
         d="M 261.5921,135.41304 A 12.391205,12.391205 0 1 1 236.80969,135.41304 A 12.391205,12.391205 0 1 1 261.5921,135.41304 z"
         sodipodi:ry="12.391205"
         sodipodi:rx="12.391205"
         sodipodi:cy="135.41304"
         sodipodi:cx="249.2009"
         id="path3241"
         style="fill:#ffffff;fill-opacity:1;fill-rule:nonzero;stroke:none;stroke-width:4;stroke-linecap:butt;stroke-linejoin:round;stroke-miterlimit:4;stroke-dasharray:none;stroke-dashoffset:0;stroke-opacity:1"
         sodipodi:type="arc" />
      <path
         transform="matrix(-2.427905e-2,0.3457316,-0.3204725,-3.5213648e-2,539.56723,268.32311)"
         d="M 261.5921,135.41304 A 12.391205,12.391205 0 1 1 236.80969,135.41304 A 12.391205,12.391205 0 1 1 261.5921,135.41304 z"
         sodipodi:ry="12.391205"
         sodipodi:rx="12.391205"
         sodipodi:cy="135.41304"
         sodipodi:cx="249.2009"
         id="path3251"
         style="fill:#ffffff;fill-opacity:1;fill-rule:nonzero;stroke:none;stroke-width:4;stroke-linecap:butt;stroke-linejoin:round;stroke-miterlimit:4;stroke-dasharray:none;stroke-dashoffset:0;stroke-opacity:1"
         sodipodi:type="arc" />
      <path
         transform="matrix(-4.1065818e-2,0.5391619,-0.5420502,-5.4915016e-2,638.80884,221.41114)"
         d="M 261.5921,135.41304 A 12.391205,12.391205 0 1 1 236.80969,135.41304 A 12.391205,12.391205 0 1 1 261.5921,135.41304 z"
         sodipodi:ry="12.391205"
         sodipodi:rx="12.391205"
         sodipodi:cy="135.41304"
         sodipodi:cx="249.2009"
         id="path3253"
         style="fill:#ffffff;fill-opacity:1;fill-rule:nonzero;stroke:none;stroke-width:4;stroke-linecap:butt;stroke-linejoin:round;stroke-miterlimit:4;stroke-dasharray:none;stroke-dashoffset:0;stroke-opacity:1"
         sodipodi:type="arc" />
      <path
         transform="matrix(-2.427905e-2,0.3457316,-0.3204725,-3.5213648e-2,439.7492,247.3269)"
         d="M 261.5921,135.41304 A 12.391205,12.391205 0 1 1 236.80969,135.41304 A 12.391205,12.391205 0 1 1 261.5921,135.41304 z"
         sodipodi:ry="12.391205"
         sodipodi:rx="12.391205"
         sodipodi:cy="135.41304"
         sodipodi:cx="249.2009"
         id="path3255"
         style="fill:#ffffff;fill-opacity:1;fill-rule:nonzero;stroke:none;stroke-width:4;stroke-linecap:butt;stroke-linejoin:round;stroke-miterlimit:4;stroke-dasharray:none;stroke-dashoffset:0;stroke-opacity:1"
         sodipodi:type="arc" />
      <path
         transform="matrix(-2.427905e-2,0.3457316,-0.3204725,-3.5213648e-2,620.11006,170.91448)"
         d="M 261.5921,135.41304 A 12.391205,12.391205 0 1 1 236.80969,135.41304 A 12.391205,12.391205 0 1 1 261.5921,135.41304 z"
         sodipodi:ry="12.391205"
         sodipodi:rx="12.391205"
         sodipodi:cy="135.41304"
         sodipodi:cx="249.2009"
         id="path3259"
         style="fill:#ffffff;fill-opacity:1;fill-rule:nonzero;stroke:none;stroke-width:4;stroke-linecap:butt;stroke-linejoin:round;stroke-miterlimit:4;stroke-dasharray:none;stroke-dashoffset:0;stroke-opacity:1"
         sodipodi:type="arc" />
      <path
         transform="matrix(-2.427905e-2,0.3457316,-0.3204725,-3.5213648e-2,552.64684,77.636241)"
         d="M 261.5921,135.41304 A 12.391205,12.391205 0 1 1 236.80969,135.41304 A 12.391205,12.391205 0 1 1 261.5921,135.41304 z"
         sodipodi:ry="12.391205"
         sodipodi:rx="12.391205"
         sodipodi:cy="135.41304"
         sodipodi:cx="249.2009"
         id="path3261"
         style="fill:#ffffff;fill-opacity:1;fill-rule:nonzero;stroke:none;stroke-width:4;stroke-linecap:butt;stroke-linejoin:round;stroke-miterlimit:4;stroke-dasharray:none;stroke-dashoffset:0;stroke-opacity:1"
         sodipodi:type="arc" />
      <path
         transform="matrix(0.4100048,3.8391926e-2,-3.9691265e-2,0.4370756,516.54551,159.11147)"
         d="M 261.5921,135.41304 A 12.391205,12.391205 0 1 1 236.80969,135.41304 A 12.391205,12.391205 0 1 1 261.5921,135.41304 z"
         sodipodi:ry="12.391205"
         sodipodi:rx="12.391205"
         sodipodi:cy="135.41304"
         sodipodi:cx="249.2009"
         id="path3265"
         style="fill:#ffffff;fill-opacity:1;fill-rule:nonzero;stroke:none;stroke-width:4;stroke-linecap:butt;stroke-linejoin:round;stroke-miterlimit:4;stroke-dasharray:none;stroke-dashoffset:0;stroke-opacity:1"
         sodipodi:type="arc" />
      <path
         inkscape:transform-center-y="1.009053"
         inkscape:transform-center-x="4.6989712"
         transform="matrix(0.3265516,-0.1369961,0.2913961,0.4963761,482.87195,132.31924)"
         d="M 261.5921,135.41304 A 12.391205,12.391205 0 1 1 236.80969,135.41304 A 12.391205,12.391205 0 1 1 261.5921,135.41304 z"
         sodipodi:ry="12.391205"
         sodipodi:rx="12.391205"
         sodipodi:cy="135.41304"
         sodipodi:cx="249.2009"
         id="path3267"
         style="fill:url(#radialGradient3312);fill-opacity:1;fill-rule:nonzero;stroke:none;stroke-width:4;stroke-linecap:butt;stroke-linejoin:round;stroke-miterlimit:4;stroke-dasharray:none;stroke-dashoffset:0;stroke-opacity:1"
         sodipodi:type="arc" />
      <path
         transform="matrix(-0.182188,0.1852503,-0.4894431,-8.7811675e-2,516.18633,22.638777)"
         d="M 261.5921,135.41304 A 12.391205,12.391205 0 1 1 236.80969,135.41304 A 12.391205,12.391205 0 1 1 261.5921,135.41304 z"
         sodipodi:ry="12.391205"
         sodipodi:rx="12.391205"
         sodipodi:cy="135.41304"
         sodipodi:cx="249.2009"
         id="path3285"
         style="fill:#ffffff;fill-opacity:1;fill-rule:nonzero;stroke:none;stroke-width:4;stroke-linecap:butt;stroke-linejoin:round;stroke-miterlimit:4;stroke-dasharray:none;stroke-dashoffset:0;stroke-opacity:1"
         sodipodi:type="arc" />
    </g>
    <path
       style="fill:#000000;fill-opacity:1;fill-rule:nonzero;stroke:#fffcfc;stroke-width:4;stroke-linecap:butt;stroke-linejoin:round;stroke-miterlimit:4;stroke-dasharray:none;stroke-dashoffset:0;stroke-opacity:1;"
       d="M 305.71875,80.75 C 294.0441,80.749998 284.56251,94.14503 284.5625,110.65625 C 284.5625,123.46842 287.36396,138.30413 295.375,142.5625 L 293.3125,153.125 L 261.59375,160.1875 L 228.15625,212.625 L 248.34375,269.90625 L 263.25,261.84375 L 251.03125,216.84375 L 279.34375,189.3125 L 277.6875,238.3125 L 271.65625,325.3125 L 270.625,379.28125 L 289.4375,379.65625 L 296.96875,328.71875 L 304.03125,270.6875 L 307.6875,272.90625 L 311.84375,271.125 L 320,303.9375 L 320,378 L 417,378 L 417,299.75 L 499.84375,186.40625 L 448.84375,149.125 L 389.90625,229.75 L 363.78125,211.8125 L 351.34375,163.03125 L 319.3125,152.125 L 316.6875,142.90625 C 324.11221,138.26201 326.875,122.87027 326.875,110.65625 C 326.875,94.145028 317.39339,80.75 305.71875,80.75 z M 336.40625,207.53125 L 342.75,228.28125 L 379.46875,244 L 350.96875,283 L 343.15625,283 L 336.6875,239.96875 L 336.40625,207.53125 z"
       transform="translate(28.07011,29.003686)"
       id="path3157"
       sodipodi:nodetypes="cscccccccccccccccccccccccccccscccccccc" />
  </g>
</svg>
